# xmcd
#
# Track frame offsets:
#	150
#	15924
#	29412
#	52437
#	70057
#	87140
#	101742
#	118533
#	140067
#	159949
#	181344
#	200643
#	218290
#	245807
#
# Disc length: 3469 seconds
#
# Revision: 14
# Processed by: cddbd v1.5.2PL0 Copyright (c) Steve Scherf et al.
# Submitted via: Jack! The Knife 20 Magnifico
#
DISCID=c20d8b0e
DTITLE=Venom - Metal Black
DYEAR=2006
DGENRE=Black Metal
TTITLE0=Antechrist
TTITLE1=Burn In Hell
TTITLE2=House Of Pain
TTITLE3=Death and Dying
TTITLE4=Regé Satanas
TTITLE5=Darkest Realm
TTITLE6=A Good Day To Die
TTITLE7=Assassin
TTITLE8=Lucifer Rising
TTITLE9=Blessed Dead
TTITLE10=Hours Of Darkness
TTITLE11=Sleep When I'm Dead
TTITLE12=Maleficarvm
TTITLE13=Metal Black
EXTD=Conrad Lant
EXTT0=Cronos, Mykys, Antton
EXTT1=Cronos, Mykys, Antton
EXTT2=Cronos, Mykys, Antton
EXTT3=Cronos, Mykys, Antton
EXTT4=Cronos, Mykys, Antton
EXTT5=Cronos, Mykys, Antton
EXTT6=Cronos, Mykys, Antton
EXTT7=Cronos, Mykys, Antton
EXTT8=Cronos, Mykys, Antton
EXTT9=Cronos, Mykys, Antton
EXTT10=Cronos, Mykys, Antton
EXTT11=Cronos, Mykys, Antton
EXTT12=Cronos, Mykys, Antton
EXTT13=Cronos, Mykys, Antton
PLAYORDER=
